<svg width="6" height="5" viewBox="0 0 6 5" fill="none" xmlns="http://www.w3.org/2000/svg">
<path d="M3.00004 4.4C2.91393 4.39965 2.8289 4.38076 2.75074 4.34463C2.67257 4.3085 2.6031 4.25596 2.54704 4.1906L0.197441 1.5092C0.0953614 1.39021 0.0295232 1.24445 0.00772394 1.0892C-0.0140753 0.933947 0.00907771 0.775698 0.0744407 0.633197C0.128309 0.50606 0.218061 0.397377 0.33272 0.320441C0.447378 0.243505 0.581972 0.201651 0.720041 0.199997H5.28004C5.41791 0.201528 5.55233 0.24328 5.6668 0.320128C5.78127 0.396976 5.87082 0.505576 5.92444 0.632597C5.99057 0.774434 6.01442 0.932323 5.99313 1.08736C5.97185 1.2424 5.90634 1.38803 5.80444 1.5068L3.45364 4.1906C3.39752 4.25604 3.32795 4.30862 3.24967 4.34475C3.1714 4.38089 3.08625 4.39973 3.00004 4.4Z" fill="#65676B"/>
</svg>
