<svg width="18" height="20" viewBox="0 0 18 20" fill="none" xmlns="http://www.w3.org/2000/svg">
<path d="M15.6666 0.833333C15.6666 0.373096 15.2935 0 14.8333 0H3.16662C2.70639 0 2.33329 0.373096 2.33329 0.833333C2.33329 1.29357 2.70639 1.66667 3.16663 1.66667H14.8333C15.2935 1.66667 15.6666 1.29357 15.6666 0.833333ZM2.33329 19.1667C2.33329 19.6269 2.70639 20 3.16663 20H14.8333C15.2935 20 15.6666 19.6269 15.6666 19.1667C15.6666 18.7064 15.2935 18.3333 14.8333 18.3333H3.16662C2.70639 18.3333 2.33329 18.7064 2.33329 19.1667ZM15.6666 3.33333H2.33329C1.89126 3.33333 1.46734 3.50893 1.15478 3.82149C0.842221 4.13405 0.666626 4.55797 0.666626 5V15C0.666626 15.442 0.842221 15.8659 1.15478 16.1785C1.46734 16.4911 1.89126 16.6667 2.33329 16.6667H15.6666C16.1087 16.6667 16.5326 16.4911 16.8451 16.1785C17.1577 15.8659 17.3333 15.442 17.3333 15V5C17.3333 4.55797 17.1577 4.13405 16.8451 3.82149C16.5326 3.50893 16.1087 3.33333 15.6666 3.33333Z" fill="#8C939D"/>
</svg>
